<?xml version="1.0" encoding="UTF-8" standalone="no"?>
<!-- Created with Inkscape (http://www.inkscape.org/) -->

<svg
   xmlns:dc="http://purl.org/dc/elements/1.1/"
   xmlns:cc="http://creativecommons.org/ns#"
   xmlns:rdf="http://www.w3.org/1999/02/22-rdf-syntax-ns#"
   xmlns:svg="http://www.w3.org/2000/svg"
   xmlns="http://www.w3.org/2000/svg"
   xmlns:sodipodi="http://sodipodi.sourceforge.net/DTD/sodipodi-0.dtd"
   xmlns:inkscape="http://www.inkscape.org/namespaces/inkscape"
   width="210mm"
   height="297mm"
   viewBox="0 0 210 297"
   version="1.1"
   id="svg8"
   inkscape:version="0.92.5 (2060ec1f9f, 2020-04-08)"
   sodipodi:docname="drawing.svg">
  <defs
     id="defs2" />
  <sodipodi:namedview
     id="base"
     pagecolor="#ffffff"
     bordercolor="#666666"
     borderopacity="1.0"
     inkscape:pageopacity="0.0"
     inkscape:pageshadow="2"
     inkscape:zoom="2"
     inkscape:cx="441.57854"
     inkscape:cy="731.61736"
     inkscape:document-units="mm"
     inkscape:current-layer="layer1"
     showgrid="false"
     inkscape:window-width="2488"
     inkscape:window-height="1376"
     inkscape:window-x="1992"
     inkscape:window-y="27"
     inkscape:window-maximized="1" />
  <metadata
     id="metadata5">
    <rdf:RDF>
      <cc:Work
         rdf:about="">
        <dc:format>image/svg+xml</dc:format>
        <dc:type
           rdf:resource="http://purl.org/dc/dcmitype/StillImage" />
        <dc:title></dc:title>
      </cc:Work>
    </rdf:RDF>
  </metadata>
  <g
     inkscape:label="Layer 1"
     inkscape:groupmode="layer"
     id="layer1">
    <path
       style="opacity:1;stroke-width:1.0526315;fill:#00e34c;fill-opacity:0.50196081"
       d="m 386,150.51953 a 200,200 0 0 0 -21.25,1.19336 v 50.01953 a 174.5,174.5 0 0 1 36.74414,4.88086 l 14.38281,-53.68359 A 200,200 0 0 0 386,150.51953 Z"
       transform="scale(0.26458333)"
       id="path895" />
    <path
       style="opacity:1;stroke-width:1.0526315;fill:#00e966;fill-opacity:0.50196081"
       d="m 356.25,152.99805 a 200,200 0 0 0 -47.5957,13.11328 l 10.85937,40.52929 a 174.5,174.5 0 0 1 36.73633,-4.9375 z"
       transform="scale(0.26458333)"
       id="path893" />
    <path
       style="opacity:1;stroke-width:1.0526315;fill:#00dd34;fill-opacity:0.50196081"
       d="m 424.2832,154.39258 -14.55468,54.32226 a 174.5,174.5 0 0 1 34.3125,14.10938 l 29.90039,-51.78906 A 200,200 0 0 0 424.2832,154.39258 Z"
       transform="scale(0.26458333)"
       id="path891" />
    <path
       style="opacity:1;stroke-width:1.0526315;fill:#00ed80;fill-opacity:0.50196081"
       d="m 300.84961,169.81836 a 200,200 0 0 0 -40.07227,24.98047 l 16.25782,28.1582 a 174.5,174.5 0 0 1 34.26172,-14.14844 z"
       transform="scale(0.26458333)"
       id="path889" />
    <path
       style="opacity:1;stroke-width:1.0526315;fill:#00d91a;fill-opacity:0.50196081"
       d="m 481.46484,175 -30.16992,52.25586 a 174.5,174.5 0 0 1 29.40625,22.55273 l 43.63867,-43.63867 A 200,200 0 0 0 481.46484,175 Z"
       transform="scale(0.26458333)"
       id="path887" />
    <path
       style="opacity:1;stroke-width:1.0526315;fill:#00f399;fill-opacity:0.50196081"
       d="m 254.16406,200.33789 a 200,200 0 0 0 -30.10351,33.23242 l 16.34375,16.34375 a 174.5,174.5 0 0 1 29.34961,-22.57031 z"
       transform="scale(0.26458333)"
       id="path885" />
    <path
       style="opacity:1;stroke-width:1.0526315;fill:#00d300;fill-opacity:0.75294119"
       d="m 530.23242,212.29883 -43.42773,43.42773 a 174.5,174.5 0 0 1 22.51367,29.46485 l 52.35547,-30.22657 a 200,200 0 0 0 -31.44141,-42.66601 z"
       transform="scale(0.26458333)"
       id="path883" />
    <path
       style="opacity:1;stroke-width:1.0526315;fill:#00f9b1;fill-opacity:0.50196081"
       d="m 219.04883,240.58008 a 200,200 0 0 0 -19.50195,37.60547 l 12.25,7.07422 a 174.5,174.5 0 0 1 22.46289,-29.46875 z"
       transform="scale(0.26458333)"
       id="path881" />
    <path
       style="opacity:1;fill:#00ffcb;fill-opacity:0.75294118;stroke-width:0.27850875"
       d="m 53.176085,73.822885 a 52.916666,52.916666 0 0 0 -2.860292,16.959169 52.916666,52.916666 0 0 0 0.145212,3.844727 46.169791,46.169791 0 0 1 5.576919,-19.151801 z"
       id="path877"
       inkscape:connector-curvature="0" />
    <circle
       id="circle829"
       cx="95.382301"
       cy="99.488533"
       r="6.7468758"
       style="opacity:0.5;stroke-width:0.03550987" />
    <path
       style="opacity:0.5;fill:#00ff00;fill-opacity:1;stroke-width:0.05529466"
       d="m 95.785777,56.408444 a 43.714627,43.714627 0 0 0 -1.025564,0.01202 v 5.121806 a 38.586814,38.586814 0 0 1 1.025564,-0.01202 z m -11.325263,1.336035 a 43.714627,43.714627 0 0 0 -0.501764,0.108166 43.714627,43.714627 0 0 0 -0.490248,0.15023 l 1.327025,4.953049 a 38.586814,38.586814 0 0 1 0.490248,-0.15023 38.586814,38.586814 0 0 1 0.501764,-0.108166 z m 21.624456,5.02e-4 -1.32602,4.948542 a 38.586814,38.586814 0 0 1 0.984,0.291445 l 1.32602,-4.948542 a 43.714627,43.714627 0 0 0 -0.984,-0.291445 z m -32.205582,4.25198 a 43.714627,43.714627 0 0 0 -0.903375,0.486742 l 2.564907,4.44277 a 38.586814,38.586814 0 0 1 0.901375,-0.490747 z m 42.784212,0.0055 -2.56241,4.438265 a 38.586814,38.586814 0 0 1 0.90638,0.481233 l 2.56241,-4.437763 a 43.714627,43.714627 0 0 0 -0.90638,-0.481735 z m 9.1204,6.838924 -3.62152,3.62152 a 38.586814,38.586814 0 0 1 0.7231,0.727108 l 3.62152,-3.621512 a 43.714627,43.714627 0 0 0 -0.7231,-0.727109 z m -61.019504,0.0025 a 43.714627,43.714627 0 0 0 -0.727107,0.723101 l 3.621017,3.62102 a 38.586814,38.586814 0 0 1 0.727109,-0.723102 z m -7.084798,8.936621 a 43.714627,43.714627 0 0 0 -0.481735,0.90638 l 4.438265,2.562405 a 38.586814,38.586814 0 0 1 0.481233,-0.90638 z"
       id="rect897"
       inkscape:connector-curvature="0" />
    <path
       transform="rotate(75)"
       style="opacity:0.5;fill:#00ffcc;stroke-width:0.03550987"
       d="m 130.3547,-10.979999 a 6.7468758,6.7468758 0 0 1 -6.74687,6.7468762 6.7468758,6.7468758 0 0 1 -6.74688,-6.7468762 6.7468758,6.7468758 0 0 1 6.74688,-6.746875 6.7468758,6.7468758 0 0 1 6.74687,6.746875 z"
       id="circle926" />
    <path
       transform="rotate(75)"
       style="opacity:0.5;fill:#00d400;stroke-width:0.03550987"
       d="m 164.45734,-138.25281 a 6.7468758,6.7468758 0 0 1 -6.74688,6.74688 6.7468758,6.7468758 0 0 1 -6.74687,-6.74688 6.7468758,6.7468758 0 0 1 6.74687,-6.74687 6.7468758,6.7468758 0 0 1 6.74688,6.74687 z"
       id="circle928" />
    <g
       id="g1032">
      <path
         id="path1014"
         style="opacity:0.5;stroke-width:0.03550987;fill-opacity:1.0;fill:#00d400"
         d="M176.106651435 123.071131762C174.378239338 123.534259541 172.536641676 123.291809192 170.986989526 122.397117106C169.437337376 121.50242502 168.306570384 120.028779836 167.843444757 118.300367162C166.879037364 114.701137394 169.014982405 111.001578391 172.614211945 110.037170143C176.213437941 109.072763761 179.912993805 111.208703334 180.877406376 114.807927672C181.35961274 116.607541842 181.066731032 118.432239469 180.20339422 119.927585251C179.340057407 121.422931033 177.90626549 122.588924971 176.106651435 123.071131762C176.106651435 123.071131762 176.106651435 123.071131762 176.106651435 123.071131762" />
      <path
         id="path1016"
         style="opacity:0.5;stroke-width:0.03550987;fill-opacity:1.0;fill:#00d919"
         d="M159.636337954 123.071132598C157.674073938 123.596920694 155.600231012 123.117784194 154.123733731 121.885025284C152.709897148 120.886118275 151.75078228 119.366479118 151.457383771 117.66041155C150.725363717 114.317379024 152.778521145 110.938919 156.143898463 110.03717098C159.50927266 109.13542461 162.976583613 111.034678143 164.014150996 114.295835967C164.629787948 115.982334894 164.514862221 117.763150896 163.817333185 119.287629936C163.182464335 121.04596098 161.660903619 122.528650355 159.636337953 123.071132598C159.636337953 123.071132598 159.636337954 123.071132598 159.636337954 123.071132598" />
      <path
         id="path1018"
         style="opacity:0.5;stroke-width:0.03550987;fill-opacity:1.0;fill:#00de33"
         d="M143.166024473 123.071133434C140.969908538 123.659581848 138.663820348 122.943759195 137.260477936 121.372933461C135.982456921 120.269811531 135.194994176 118.704178401 135.071322786 117.020455937C134.571690071 113.933620653 136.542059884 110.876259609 139.673584982 110.037171816C142.80510738 109.19808546 146.040173421 110.860652952 147.150895616 113.783744262C147.899963157 115.357127946 147.962993409 117.094062324 147.431272151 118.64767462C147.024871263 120.668990928 145.415541748 122.468375739 143.166024472 123.071133435C143.166024472 123.071133435 143.166024473 123.071133434 143.166024473 123.071133434" />
      <path
         id="path1020"
         style="opacity:0.5;stroke-width:0.03550987;fill-opacity:1.0;fill:#00e44c"
         d="M126.695710992 123.07113427C124.265743138 123.722243001 121.727409684 122.769734197 120.397222141 120.860841639C119.255016694 119.653504787 118.639206072 118.041877683 118.6852618 116.380500325C118.418016425 113.549862283 120.305598624 110.813600217 123.203271501 110.037172652C126.1009421 109.26074631 129.103763229 110.686627761 130.287640237 113.271652557C131.170138365 114.731920999 131.411124598 116.424973752 131.045211116 118.007719305C130.867278191 120.292020875 129.170179877 122.408101123 126.695710991 123.071134271C126.695710991 123.071134271 126.695710991 123.071134271 126.695710991 123.071134271" />
      <path
         id="path1022"
         style="opacity:0.5;stroke-width:0.03550987;fill-opacity:1.0;fill:#00e966"
         d="M110.225397511 123.071135107C107.561577738 123.784904155 104.79099902 122.595709199 103.533966346 120.348749817C102.527576467 119.037198043 102.083417968 117.379576966 102.299200815 115.740544713C102.264342779 113.166103912 104.069137363 110.750940826 106.732958019 110.037173489C109.396776819 109.32340716 112.167353037 110.51260257 113.424384857 112.759560852C114.440313574 114.106714051 114.859255786 115.755885179 114.659150082 117.367763989C114.70968512 119.915050822 112.924818006 122.347826508 110.225397509 123.071135107C110.225397509 123.071135107 110.22539751 123.071135107 110.22539751 123.071135107" />
      <path
         id="path1024"
         style="opacity:0.5;stroke-width:0.03550987;fill-opacity:1.0;fill:#00ee7f"
         d="M93.7550840301 123.071135943C90.8574123381 123.847565309 87.8545883561 122.4216842 86.6707105511 119.836657994C85.8001362394 118.420891299 85.5276298637 116.717276248 85.9131398293 115.1005891C86.1106691324 112.782345542 87.8326761022 110.688281435 90.2626445378 110.037174325C92.6926115386 109.38606801 95.2309428453 110.338577379 96.5611294777 112.247469148C97.7104887824 113.481507103 98.3073869751 115.086796607 98.2730890472 116.727808674C98.5520920477 119.538080769 96.6794561356 122.287551892 93.7550840277 123.071135943C93.7550840277 123.071135943 93.7550840289 123.071135943 93.7550840289 123.071135943" />
      <path
         id="path1026"
         style="opacity:0.5;stroke-width:0.03550987;fill-opacity:1.0;fill:#00f499"
         d="M77.2847705492 123.071136779C74.1532469382 123.910226462 70.9181776921 122.247659202 69.8074547561 119.324566172C69.0726960121 117.804584555 68.9718417597 116.054975531 69.5270788438 114.460633488C69.9569954862 112.398587172 71.5962148416 110.625622044 73.7923310564 110.037175161C75.9884462581 109.44872886 78.2945326535 110.164552188 79.6978740981 111.735377443C80.980663991 112.856300155 81.7555181638 114.417708035 81.8870280127 116.087853358C82.3944989758 119.161110716 80.4340942648 122.227277276 77.2847705462 123.07113678C77.2847705462 123.07113678 77.2847705477 123.071136779 77.2847705477 123.071136779" />
      <path
         id="path1028"
         style="opacity:0.5;stroke-width:0.03550987;fill-opacity:1.0;fill:#00f9b2"
         d="M60.8144570683 123.071137615C57.4490815383 123.972887616 53.9817670281 122.073634203 52.9441989611 118.81247435C52.3452557849 117.18827781 52.4160536556 115.392674813 53.1410178582 113.820677876C53.80332184 112.014828801 55.3597535809 110.562962653 57.322017575 110.037175997C59.2842809777 109.51138971 61.3581224616 109.990526997 62.8346187185 111.223285738C64.2508391995 112.231093208 65.2036493524 113.748619462 65.5009669782 115.447898043C66.236905904 118.784140663 64.188732394 122.16700266 60.8144570648 123.071137616C60.8144570648 123.071137616 60.8144570666 123.071137616 60.8144570666 123.071137616" />
      <path
         id="path1030"
         style="opacity:0.5;stroke-width:0.03550987;fill-opacity:1.0;fill:#00ffcc"
         d="M44.3441435874 123.071138451C40.7449161384 124.035548769 37.045356364 121.899609205 36.0809431662 118.300382528C35.6178155577 116.571971066 35.8602655516 114.730374096 36.7549568727 113.180722263C37.6496481937 111.631070431 39.1232923202 110.500303262 40.8517040936 110.037176834C42.5801156972 109.57405056 44.4217122698 109.816501806 45.9713633389 110.711194033C47.5210144081 111.60588626 48.651780541 113.07953089 49.1149059438 114.807942727C50.0793128321 118.40717061 47.9433705231 122.106728044 44.3441435834 123.071138452C44.3441435834 123.071138452 44.3441435854 123.071138452 44.3441435854 123.071138452" />
    </g>
    <g
       id="g1059"
       style="fill:#000000;fill-opacity:1">
      <circle
         transform="rotate(15)"
         style="opacity:1;stroke-width:0.03550987;fill:#000000;fill-opacity:1"
         r="6.7468758"
         cy="71.411789"
         cx="117.88175"
         id="circle833" />
      <path
         sodipodi:nodetypes="ccccc"
         inkscape:connector-curvature="0"
         id="rect1046"
         d="m 95.315583,63.902082 h 0.133432 l 3.88209,35.586453 h -7.897612 z"
         style="opacity:1;fill:#000000;fill-opacity:1;stroke-width:0.25098711" />
    </g>
  </g>
</svg>
